<?xml version="1.0" standalone="no"?>
<!DOCTYPE svg PUBLIC "-//W3C//DTD SVG 20010904//EN"
 "http://www.w3.org/TR/2001/REC-SVG-20010904/DTD/svg10.dtd">
<svg version="1.0" xmlns="http://www.w3.org/2000/svg"
 width="700.000000pt" height="700.000000pt" viewBox="0 0 700.000000 700.000000"
 preserveAspectRatio="xMidYMid meet">
<metadata>
Created by potrace 1.14, written by Peter Selinger 2001-2017
</metadata>
<g transform="translate(0.000000,700.000000) scale(0.100000,-0.100000)"
fill="#000000" stroke="none">
<path d="M3280 6994 c-659 -48 -1283 -269 -1800 -637 -234 -168 -531 -446
-696 -652 -431 -539 -673 -1113 -760 -1800 -25 -194 -25 -614 -1 -810 67 -530
235 -1008 510 -1450 137 -220 288 -407 496 -616 292 -292 549 -478 911 -660
364 -183 724 -291 1155 -345 194 -25 614 -25 810 -1 823 104 1540 460 2110
1048 132 136 255 283 255 305 0 8 9 19 21 26 25 16 183 251 269 401 214 374
356 814 416 1292 25 194 25 614 1 810 -86 680 -332 1263 -761 1800 -102 128
-382 408 -511 511 -530 424 -1102 668 -1765 755 -150 19 -525 33 -660 23z
m505 -553 c269 -40 436 -86 715 -194 191 -75 211 -83 335 -148 431 -223 787
-543 996 -896 111 -187 126 -214 191 -368 147 -346 218 -762 189 -1110 -36
-436 -99 -672 -262 -985 -196 -375 -439 -633 -809 -860 -113 -70 -396 -211
-490 -245 -138 -50 -159 -60 -164 -78 -3 -12 -9 -16 -16 -12 -9 6 -9 10 1 16
22 14 5 11 -114 -20 -103 -27 -240 -51 -287 -51 -13 0 -17 5 -14 15 8 20 -10
19 -26 0 -7 -9 -26 -25 -41 -36 l-28 -20 -21 38 c-26 47 -22 31 21 -72 25 -63
33 -95 33 -150 1 -80 -14 -113 -72 -158 -33 -26 -43 -28 -94 -25 -51 4 -64 10
-130 60 -40 31 -84 71 -96 88 l-24 32 22 -12 c13 -7 36 -16 52 -21 24 -7 29
-5 24 6 -3 9 1 15 10 15 8 0 17 -7 20 -15 8 -21 30 -19 47 5 9 13 20 18 31 14
13 -5 15 -1 10 25 -4 20 -3 31 5 31 16 0 14 25 -4 40 -12 10 -13 15 -4 21 19
11 -9 89 -36 101 -12 5 -30 24 -40 41 -10 18 -33 45 -52 60 -18 16 -33 35 -33
43 0 8 -22 38 -50 66 -27 28 -50 59 -50 68 0 25 -22 40 -48 33 -15 -4 -22 -1
-22 10 0 17 -41 47 -65 47 -8 0 -15 6 -16 13 -3 51 -26 127 -38 127 -14 0 -91
81 -86 91 4 5 -1 12 -9 15 -9 3 -16 13 -16 22 0 20 -39 62 -57 62 -7 0 -13 6
-13 14 0 21 -19 30 -35 16 -11 -9 -14 -7 -17 11 -2 16 -14 25 -47 35 -25 7
-48 11 -53 8 -4 -3 -8 2 -8 11 0 8 -6 18 -14 21 -8 3 -12 13 -9 25 7 25 -25
26 -35 1 -4 -9 -13 -18 -21 -20 -10 -2 -12 4 -7 23 4 15 3 24 -1 22 -5 -3 -19
10 -32 29 -13 19 -29 34 -35 34 -16 0 -38 39 -47 80 -7 34 -7 34 -8 5 0 -16 5
-52 13 -80 13 -46 29 -84 108 -254 16 -34 27 -70 24 -78 -3 -8 -1 -11 4 -8 6
3 10 -3 10 -13 0 -11 7 -23 16 -26 11 -4 14 -13 11 -27 -4 -16 -3 -18 8 -9 11
9 12 7 8 -8 -2 -11 3 -35 12 -53 17 -32 17 -33 -5 -51 -12 -10 -31 -18 -41
-18 -10 0 -19 -6 -19 -14 0 -24 -21 -30 -27 -7 -3 13 -13 21 -26 21 -11 0 -17
3 -14 6 11 11 -35 45 -53 39 -14 -4 -22 8 -39 56 -13 33 -25 58 -28 56 -3 -3
3 -43 13 -88 17 -78 17 -82 0 -95 -10 -7 -15 -18 -11 -24 9 -15 -23 -45 -55
-53 -14 -3 -43 -11 -66 -18 -48 -15 -94 -6 -94 19 0 15 -2 15 -11 2 -8 -11
-12 -12 -16 -2 -7 17 -26 15 -20 -2 4 -10 0 -12 -16 -8 -19 5 -20 3 -9 -11 8
-9 19 -14 26 -11 8 3 16 -2 20 -11 3 -10 -1 -18 -11 -22 -10 -4 -19 -1 -21 6
-2 7 -22 33 -44 58 -53 61 -108 137 -141 195 -15 26 -33 50 -40 55 -6 4 -5 -4
5 -18 28 -44 98 -179 92 -179 -3 0 -24 13 -47 28 -23 16 -49 32 -57 37 -21 11
63 -62 122 -107 59 -45 122 -123 148 -183 27 -63 13 -72 -83 -58 -64 10 -97
11 -161 5 -14 -2 -17 -7 -12 -27 4 -14 2 -34 -3 -44 -8 -15 -2 -23 35 -50 25
-17 50 -28 56 -25 7 4 8 2 4 -4 -8 -13 30 -36 44 -27 11 6 79 -30 93 -49 5 -7
11 -5 18 7 5 9 17 17 25 17 8 0 13 -4 9 -9 -3 -5 4 -12 15 -16 11 -3 20 -10
20 -15 0 -5 7 -7 16 -3 10 4 17 -1 21 -16 3 -11 13 -21 22 -21 10 0 26 -7 37
-15 10 -8 29 -15 41 -15 12 0 24 -4 28 -9 10 -18 145 -53 237 -61 126 -13 125
-13 148 12 27 29 27 7 0 -64 -22 -59 -32 -68 -76 -68 -96 0 -428 144 -769 334
-145 81 -370 231 -525 349 -145 111 -362 331 -432 437 -86 133 -131 226 -132
276 -1 24 -4 44 -8 44 -5 0 -8 14 -8 30 0 26 8 36 55 65 106 69 282 73 378 10
13 -8 31 -13 39 -10 8 3 26 -5 40 -18 14 -13 43 -31 64 -41 21 -10 53 -28 69
-41 69 -51 157 -95 189 -95 33 0 86 32 86 51 0 6 12 22 26 37 22 23 25 24 21
7 -12 -43 -17 -110 -8 -90 5 11 10 32 10 46 1 15 12 46 26 70 17 32 21 45 12
51 -9 5 -9 10 1 20 10 10 15 10 20 1 6 -9 22 -3 57 22 71 51 189 86 315 95
l105 8 -115 0 c-111 0 -195 15 -199 36 -1 5 18 17 43 27 25 9 69 34 97 54 40
28 57 35 78 30 25 -6 25 -5 6 8 -45 31 -84 37 -143 21 -93 -24 -340 -30 -447
-9 -127 23 -190 60 -307 176 -102 101 -183 215 -264 372 -25 48 -50 87 -57 87
-7 0 -57 30 -112 66 -155 103 -415 376 -415 436 0 55 363 269 528 312 41 11
43 13 85 106 24 53 58 117 76 144 50 72 147 176 233 248 42 36 74 69 70 73 -4
5 -1 5 6 1 7 -4 24 2 40 15 23 18 24 21 5 15 -12 -4 38 54 112 130 90 93 138
135 149 131 10 -4 32 16 69 61 99 121 266 272 300 272 21 0 145 -136 212 -234
30 -45 66 -97 80 -116 33 -48 91 -170 112 -237 16 -52 21 -57 123 -128 58 -40
121 -88 140 -107 19 -18 41 -33 50 -33 8 -1 14 -7 12 -15 -2 -7 17 -34 41 -59
25 -25 63 -77 86 -115 40 -67 44 -86 45 -183 0 -13 6 -23 13 -23 7 0 13 -9 13
-21 0 -14 -5 -19 -14 -16 -11 4 -16 -9 -21 -56 -7 -59 -25 -141 -40 -179 -4
-10 -3 -18 3 -18 5 0 15 20 22 45 12 43 30 70 30 44 0 -6 8 -17 17 -24 14 -11
15 -17 6 -38 -9 -18 -9 -27 0 -36 6 -6 7 -11 2 -11 -6 0 -3 -4 5 -10 30 -19 3
-18 -39 1 -25 11 -49 18 -55 16 -24 -9 265 -128 356 -146 44 -9 61 -9 76 0 12
7 27 9 38 4 17 -7 15 -9 -11 -15 -16 -4 -23 -8 -15 -9 8 -1 33 -3 55 -6 34 -4
36 -3 15 5 -19 7 -12 8 30 4 30 -3 57 -10 58 -15 2 -5 18 -7 35 -4 18 3 46 1
62 -4 l30 -9 -30 -3 c-42 -3 74 -17 155 -18 60 -1 71 2 140 43 41 24 78 41 82
37 5 -4 2 -54 -6 -111 -8 -62 -10 -110 -5 -116 5 -6 37 -17 72 -24 97 -19 96
-18 57 -52 -61 -52 -209 -149 -252 -164 -62 -21 -151 -19 -371 11 -25 4 -36 2
-32 -5 3 -5 14 -10 25 -10 10 0 32 -17 50 -37 l31 -38 -16 33 c-15 31 -15 32
7 32 29 -1 164 -18 201 -26 15 -3 27 -12 27 -21 0 -8 -6 -13 -13 -10 -7 3 -20
0 -28 -7 -21 -15 -49 -71 -47 -93 3 -35 -2 -54 -12 -48 -7 4 -9 -3 -5 -22 l6
-28 -16 28 c-9 15 -18 27 -20 27 -5 0 23 -68 40 -94 16 -25 85 -182 109 -248
15 -42 21 -47 40 -42 27 6 51 -18 42 -42 -3 -9 -15 -18 -27 -21 -15 -4 -19
-11 -15 -27 46 -186 62 -460 33 -566 -8 -30 -17 -75 -20 -100 -6 -41 -4 -38
18 25 13 39 24 64 24 58 1 -7 8 -21 17 -30 8 -10 28 -37 44 -60 38 -55 65 -72
159 -99 55 -17 68 -23 46 -24 -16 -1 -24 -4 -16 -7 23 -9 147 17 235 49 382
139 766 478 981 868 115 207 160 330 219 590 51 225 76 563 57 757 -33 326
-59 425 -195 746 -30 70 -179 321 -246 417 -108 152 -309 353 -495 496 -74 57
-240 162 -310 197 -376 188 -727 300 -1110 352 -167 23 -211 26 -362 21 -199
-7 -309 -22 -517 -70 -169 -40 -183 -44 -326 -98 -211 -80 -373 -166 -595
-316 -179 -122 -366 -294 -539 -495 -293 -341 -439 -607 -545 -992 -43 -158
-49 -187 -67 -352 -26 -226 -24 -541 5 -713 42 -254 83 -443 106 -490 7 -14
20 -56 30 -95 39 -160 204 -527 304 -675 117 -175 149 -220 201 -285 102 -126
144 -189 132 -193 -17 -5 -15 -29 3 -36 8 -3 15 -12 15 -21 0 -8 6 -15 13 -15
9 0 8 -3 -2 -9 -7 -5 -10 -14 -6 -21 4 -6 -2 -20 -14 -31 -21 -19 -21 -19 -62
23 -282 289 -479 607 -672 1083 -85 208 -179 571 -199 765 -16 160 -16 588 1
748 25 245 122 564 252 825 168 341 477 717 787 961 289 226 550 370 847 467
198 65 494 128 705 149 129 13 417 3 565 -19z m-340 -142 c0 -7 -8 -15 -17
-17 -18 -3 -25 18 -11 32 10 10 28 1 28 -15z m1315 -109 c0 -13 -7 -20 -20
-20 -13 0 -20 7 -20 20 0 13 7 20 20 20 13 0 20 -7 20 -20z m-2550 -285 c0 -8
-7 -15 -15 -15 -8 0 -15 7 -15 15 0 8 7 15 15 15 8 0 15 -7 15 -15z m-150 -70
c0 -8 -7 -15 -15 -15 -8 0 -15 7 -15 15 0 8 7 15 15 15 8 0 15 -7 15 -15z
m-165 -55 c0 -22 -29 -18 -33 3 -3 14 1 18 15 15 10 -2 18 -10 18 -18z m3341
-141 c10 -17 -13 -36 -27 -22 -12 12 -4 33 11 33 5 0 12 -5 16 -11z m-3486
-84 c0 -8 -7 -15 -15 -15 -8 0 -15 7 -15 15 0 8 7 15 15 15 8 0 15 -7 15 -15z
m1140 -485 c0 -5 -4 -10 -10 -10 -5 0 -10 5 -10 10 0 6 5 10 10 10 6 0 10 -4
10 -10z m-1684 -255 c6 -16 -12 -45 -28 -45 -15 0 -21 30 -8 45 16 19 29 19
36 0z m132 -49 c-2 -13 -12 -22 -26 -24 -29 -4 -42 26 -18 44 24 17 48 6 44
-20z m4797 -46 c10 -16 -16 -43 -28 -31 -11 11 -2 41 12 41 5 0 13 -5 16 -10z
m-2768 -92 c13 -29 -1 -68 -24 -68 -26 0 -40 12 -52 42 -8 22 -7 29 7 37 29
17 58 12 69 -11z m-1837 2 c0 -5 -4 -10 -10 -10 -5 0 -10 5 -10 10 0 6 5 10
10 10 6 0 10 -4 10 -10z m1995 -379 c7 -12 -12 -24 -25 -16 -11 7 -4 25 10 25
5 0 11 -4 15 -9z m125 -111 c0 -5 -4 -10 -10 -10 -5 0 -10 5 -10 10 0 6 5 10
10 10 6 0 10 -4 10 -10z m1058 -52 c17 -22 -4 -60 -30 -56 -26 3 -35 32 -18
53 15 18 34 19 48 3z m-604 -149 c-3 -5 -10 -7 -15 -3 -5 3 -7 10 -3 15 3 5
10 7 15 3 5 -3 7 -10 3 -15z m302 -1 c13 -13 24 -33 24 -45 0 -41 -60 -53 -74
-16 -6 14 13 83 22 83 2 0 15 -10 28 -22z m-346 -48 c0 -5 -7 -10 -16 -10 -8
0 -12 5 -9 10 3 6 10 10 16 10 5 0 9 -4 9 -10z m2270 -31 c0 -14 -5 -19 -17
-17 -26 5 -29 38 -4 38 15 0 21 -6 21 -21z m-2557 -46 c-7 -2 -19 -2 -25 0 -7
3 -2 5 12 5 14 0 19 -2 13 -5z m837 -67 c0 -32 -24 -50 -55 -42 -34 9 -36 58
-2 73 29 14 57 -1 57 -31z m478 -18 c28 -28 3 -75 -30 -57 -17 9 -25 49 -11
62 10 11 28 8 41 -5z m-298 -68 c0 -5 -4 -10 -10 -10 -5 0 -10 5 -10 10 0 6 5
10 10 10 6 0 10 -4 10 -10z m-3623 -166 c7 -19 -20 -49 -36 -40 -12 8 -15 39
-4 49 12 12 33 7 40 -9z m83 -54 c0 -5 -2 -10 -4 -10 -3 0 -8 5 -11 10 -3 6
-1 10 4 10 6 0 11 -4 11 -10z m3274 -101 c-3 -5 -10 -7 -15 -3 -5 3 -7 10 -3
15 3 5 10 7 15 3 5 -3 7 -10 3 -15z m-3054 -104 c0 -8 -7 -15 -15 -15 -8 0
-15 7 -15 15 0 8 7 15 15 15 8 0 15 -7 15 -15z m40 0 c0 -8 -2 -15 -4 -15 -2
0 -6 7 -10 15 -3 8 -1 15 4 15 6 0 10 -7 10 -15z m2762 -20 c0 -5 -5 -11 -11
-13 -6 -2 -11 4 -11 13 0 9 5 15 11 13 6 -2 11 -8 11 -13z m-2677 -105 c3 -5
1 -10 -4 -10 -6 0 -11 5 -11 10 0 6 2 10 4 10 3 0 8 -4 11 -10z m85 -96 c0
-11 -41 29 -52 51 -6 11 3 6 21 -12 17 -18 31 -36 31 -39z m3088 20 c3 -23
-21 -49 -38 -39 -11 7 -14 48 -3 59 13 13 38 1 41 -20z m-3518 -15 c0 -20 -24
-26 -35 -9 -4 6 -4 17 -1 25 7 20 36 7 36 -16z m445 -18 c-3 -6 3 -14 12 -20
10 -6 13 -11 7 -11 -15 0 -36 25 -27 33 10 10 15 8 8 -2z m65 -56 c7 -9 8 -15
2 -15 -5 0 -12 7 -16 15 -3 8 -4 15 -2 15 2 0 9 -7 16 -15z m520 -175 c0 -5
-7 -10 -15 -10 -8 0 -15 5 -15 10 0 6 7 10 15 10 8 0 15 -4 15 -10z m-211 -29
c7 -5 9 -11 5 -14 -5 -3 -15 1 -22 9 -14 16 -5 18 17 5z m145 -32 c-3 -5 -10
-7 -15 -3 -5 3 -7 10 -3 15 3 5 10 7 15 3 5 -3 7 -10 3 -15z m-54 -59 c0 -5
-5 -10 -11 -10 -5 0 -7 5 -4 10 3 6 8 10 11 10 2 0 4 -4 4 -10z m-989 -230 c5
0 9 -7 9 -16 0 -22 86 -183 153 -286 31 -48 57 -89 57 -92 0 -15 -31 -4 -42
14 -7 11 -23 20 -36 20 -13 0 -20 4 -17 10 3 6 1 10 -4 10 -12 0 -45 25 -69
52 -8 9 -22 14 -30 10 -12 -4 -14 0 -9 17 3 13 3 21 0 18 -10 -11 -30 17 -25
35 2 10 -1 18 -8 18 -9 0 -9 4 1 16 12 15 11 16 -7 10 -15 -4 -23 -2 -27 8 -4
10 -1 13 7 10 9 -3 13 2 11 18 -4 38 -5 39 -14 34 -5 -3 -12 2 -16 11 -3 10
-1 19 4 21 6 2 8 15 5 30 -5 22 -3 24 6 12 9 -12 11 -10 7 12 -3 19 1 28 12
30 9 2 17 -2 19 -9 2 -7 8 -13 13 -13z m1686 -72 c-3 -7 -5 -2 -5 12 0 14 2
19 5 13 2 -7 2 -19 0 -25z m3550 -314 c6 -16 -19 -44 -39 -44 -19 0 -21 33 -3
46 25 18 34 18 42 -2z m-263 -124 c57 -21 43 -89 -44 -210 -143 -199 -334
-388 -510 -504 -170 -113 -372 -228 -525 -301 -351 -167 -652 -260 -1045 -324
-276 -45 -722 -53 -980 -17 -114 16 -140 23 -140 38 0 7 21 8 58 3 31 -4 89
-9 127 -10 39 -1 111 -5 160 -9 62 -4 83 -3 68 4 -13 5 -23 16 -23 25 0 20
-37 19 -48 -1 -8 -15 -13 -15 -40 -3 -32 14 -34 44 -1 34 10 -4 24 -3 31 2 9
5 -1 11 -27 19 -33 9 -22 10 71 6 132 -5 350 18 504 54 110 26 218 72 310 132
70 45 224 177 343 294 91 89 255 234 332 294 49 37 210 146 285 192 145 90
467 206 691 251 85 16 163 32 174 34 40 9 204 7 229 -3z m17 -183 c-6 -6 -11
-21 -11 -33 0 -13 -5 -26 -10 -29 -6 -4 -7 -11 -4 -17 4 -7 2 -8 -4 -4 -7 4
-17 -3 -24 -18 -6 -14 -15 -26 -21 -26 -5 0 -17 -10 -28 -22 -19 -23 -19 -23
-2 15 11 25 22 36 31 32 10 -3 12 0 9 10 -4 8 0 21 8 29 8 7 11 16 8 20 -4 3
-2 6 4 6 5 0 18 16 29 35 10 20 20 31 23 24 2 -6 -2 -16 -8 -22z m4 -157 c3
-5 1 -10 -4 -10 -6 0 -11 5 -11 10 0 6 2 10 4 10 3 0 8 -4 11 -10z m-3055 -26
c0 -8 -5 -12 -10 -9 -6 4 -8 11 -5 16 9 14 15 11 15 -7z m3090 12 c0 -3 -4 -8
-10 -11 -5 -3 -10 -1 -10 4 0 6 5 11 10 11 6 0 10 -2 10 -4z m-1670 -46 c0 -5
-7 -10 -16 -10 -8 0 -12 5 -9 10 3 6 10 10 16 10 5 0 9 -4 9 -10z m1550 0 c0
-5 -4 -10 -10 -10 -5 0 -10 5 -10 10 0 6 5 10 10 10 6 0 10 -4 10 -10z m-1766
-17 c8 -20 -14 -36 -31 -22 -14 12 -6 39 12 39 7 0 16 -8 19 -17z m-1479 -33
c0 -22 -29 -18 -33 3 -3 14 1 18 15 15 10 -2 18 -10 18 -18z m1345 13 c-27
-10 -50 -36 -50 -55 0 -11 -7 -18 -20 -18 -35 0 -69 -22 -80 -54 l-11 -31 -14
25 c-7 14 -16 41 -20 60 -6 32 -4 36 27 52 18 10 49 19 68 20 76 6 114 7 100
1z m-903 -34 c21 -10 46 -19 58 -19 11 -1 36 -9 55 -20 l35 -19 -35 0 c-19 0
-60 10 -91 23 -51 20 -57 21 -68 7 -10 -13 -10 -12 -6 7 5 15 2 22 -8 22 -8 0
-17 7 -21 15 -7 19 25 12 81 -16z m1008 -19 c-3 -5 -10 -10 -16 -10 -5 0 -9 5
-9 10 0 6 7 10 16 10 8 0 12 -4 9 -10z m-1818 -57 c-7 -6 -46 10 -41 18 3 5
14 3 24 -3 11 -7 18 -13 17 -15z m513 -123 c0 -5 -2 -10 -4 -10 -3 0 -8 5 -11
10 -3 6 -1 10 4 10 6 0 11 -4 11 -10z m2455 -385 c0 -13 -8 -21 -24 -23 -32
-5 -48 12 -31 33 18 22 55 15 55 -10z m-3325 -55 c0 -5 -4 -10 -10 -10 -5 0
-10 5 -10 10 0 6 5 10 10 10 6 0 10 -4 10 -10z m2970 -30 c0 -5 -4 -10 -10
-10 -5 0 -10 5 -10 10 0 6 5 10 10 10 6 0 10 -4 10 -10z m-2480 -90 c0 -5 -4
-10 -10 -10 -5 0 -10 5 -10 10 0 6 5 10 10 10 6 0 10 -4 10 -10z m2250 0 c0
-5 -5 -10 -11 -10 -5 0 -7 5 -4 10 3 6 8 10 11 10 2 0 4 -4 4 -10z m-1710 -44
c0 -2 -3 -12 -6 -20 -5 -13 -9 -14 -20 -5 -20 16 -17 29 6 29 11 0 20 -2 20
-4z m-123 -12 c-3 -3 -12 -4 -19 -1 -8 3 -5 6 6 6 11 1 17 -2 13 -5z m88 -15
c10 -15 -2 -24 -17 -12 -7 6 -22 13 -33 16 -13 3 -9 5 12 6 17 0 35 -4 38 -10z
m-235 -9 c0 -5 -4 -10 -10 -10 -5 0 -10 5 -10 10 0 6 5 10 10 10 6 0 10 -4 10
-10z m1000 -90 c0 -5 -5 -10 -11 -10 -5 0 -7 5 -4 10 3 6 8 10 11 10 2 0 4 -4
4 -10z m506 -1 c10 -17 -12 -32 -35 -24 -29 9 -27 35 3 35 14 0 28 -5 32 -11z
m-926 -19 c0 -5 -4 -10 -10 -10 -5 0 -10 5 -10 10 0 6 5 10 10 10 6 0 10 -4
10 -10z m714 4 c9 -3 16 -15 16 -26 0 -29 -44 -20 -48 10 -3 23 4 27 32 16z"/>
<path d="M2046 4983 c-6 -14 -5 -15 5 -6 7 7 10 15 7 18 -3 3 -9 -2 -12 -12z"/>
<path d="M1970 4940 c-8 -5 -10 -10 -5 -10 6 0 17 5 25 10 8 5 11 10 5 10 -5
0 -17 -5 -25 -10z"/>
<path d="M1925 4920 c-3 -5 -2 -10 4 -10 5 0 13 5 16 10 3 6 2 10 -4 10 -5 0
-13 -4 -16 -10z"/>
<path d="M2674 4373 c78 -12 121 -80 121 -193 0 -64 -5 -85 -30 -135 -45 -89
-113 -128 -157 -88 -15 13 -18 14 -18 2 0 -24 53 -101 111 -160 30 -30 41 -39
24 -20 -16 20 -32 38 -35 41 -17 16 -39 60 -31 60 5 0 33 -23 62 -51 78 -76
192 -123 134 -55 -32 37 -31 42 6 65 17 11 44 38 59 61 25 38 27 48 24 118 -2
44 -10 85 -19 98 -13 20 -13 25 1 38 8 9 12 20 9 26 -17 27 69 -13 124 -58 25
-20 49 -37 54 -37 5 0 15 -13 22 -30 12 -27 13 -28 14 -7 3 73 -112 183 -274
262 -106 51 -164 71 -205 68 -22 -1 -22 -1 4 -5z"/>
<path d="M3112 3873 c-12 -37 -20 -69 -18 -71 2 -2 14 27 26 63 12 36 20 68
18 70 -2 3 -14 -26 -26 -62z"/>
<path d="M2550 3850 c6 -11 13 -20 16 -20 2 0 0 9 -6 20 -6 11 -13 20 -16 20
-2 0 0 -9 6 -20z"/>
<path d="M2598 3782 c19 -23 39 -45 45 -49 7 -4 -3 12 -21 35 -19 23 -39 45
-45 49 -7 4 3 -12 21 -35z"/>
<path d="M3055 3754 c-9 -14 -14 -28 -12 -31 3 -3 13 9 22 26 19 38 14 41 -10
5z"/>
<path d="M2670 3696 c0 -3 9 -10 20 -16 11 -6 20 -8 20 -6 0 3 -9 10 -20 16
-11 6 -20 8 -20 6z"/>
<path d="M2850 3680 c8 -5 22 -9 30 -9 10 0 8 3 -5 9 -27 12 -43 12 -25 0z"/>
<path d="M2969 3638 c-12 -23 -12 -23 10 -4 23 21 26 26 11 26 -5 0 -15 -10
-21 -22z"/>
<path d="M1680 3405 c0 -5 5 -17 10 -25 5 -8 10 -10 10 -5 0 6 -5 17 -10 25
-5 8 -10 11 -10 5z"/>
<path d="M2030 3387 c0 -13 -12 -48 -27 -78 -24 -45 -34 -55 -64 -63 -20 -5
-45 -6 -55 -2 -11 4 -20 6 -20 4 -1 -2 -12 6 -25 17 -20 18 -20 15 7 -35 37
-70 157 -190 220 -220 27 -13 52 -28 55 -33 4 -6 26 -6 55 -1 l49 9 -42 3
c-34 2 -43 8 -52 31 -7 15 -25 35 -41 45 -17 9 -34 25 -39 34 -7 14 -4 17 16
18 34 3 63 32 63 65 0 15 5 31 10 34 6 3 10 3 10 -2 0 -4 11 -13 25 -20 21 -9
25 -9 25 5 0 12 5 10 25 -8 69 -64 -7 48 -100 148 -70 75 -95 88 -95 49z"/>
<path d="M3128 3380 c-3 -14 -14 -60 -23 -103 -43 -199 -127 -306 -342 -435
-37 -22 -37 -23 -8 -17 48 10 166 89 235 157 35 35 62 64 61 66 -1 1 0 8 2 15
4 9 8 9 15 -2 8 -11 14 -11 33 -1 20 11 19 8 -8 -27 -18 -21 -67 -73 -110
-113 -116 -111 -157 -161 -141 -172 9 -7 7 -8 -8 -4 -14 4 -29 -4 -54 -29 -19
-19 -43 -35 -54 -36 -13 0 -8 -5 14 -11 51 -14 58 -24 54 -71 l-4 -42 13 50
c16 61 45 117 56 111 5 -3 11 12 15 34 8 50 68 114 116 123 47 10 115 9 144
-2 16 -7 35 -6 55 2 24 9 40 8 81 -5 27 -9 48 -12 45 -8 -11 18 -80 32 -125
27 -32 -4 -54 -1 -66 8 -18 12 -18 15 0 71 10 32 21 85 23 118 3 34 9 66 14
71 15 20 17 93 4 131 -8 22 -15 35 -16 29 -1 -5 -5 13 -9 40 -5 40 -7 45 -12
25z m-318 -660 c0 -5 -5 -10 -11 -10 -5 0 -7 5 -4 10 3 6 8 10 11 10 2 0 4 -4
4 -10z"/>
<path d="M1800 3311 c0 -6 4 -13 10 -16 6 -3 7 1 4 9 -7 18 -14 21 -14 7z"/>
<path d="M1740 3281 c0 -6 4 -13 10 -16 6 -3 7 1 4 9 -7 18 -14 21 -14 7z"/>
<path d="M3410 2781 c0 -5 5 -13 11 -17 6 -3 24 -27 40 -52 16 -25 29 -41 29
-36 0 6 -7 19 -15 30 -8 10 -15 26 -15 34 -1 16 -50 57 -50 41z"/>
<path d="M3488 2753 c7 -3 16 -2 19 1 4 3 -2 6 -13 5 -11 0 -14 -3 -6 -6z"/>
<path d="M2862 2680 c0 -14 2 -19 5 -12 2 6 2 18 0 25 -3 6 -5 1 -5 -13z"/>
<path d="M1651 2557 c2 -1 13 -9 24 -17 19 -14 19 -14 6 3 -7 9 -18 17 -24 17
-6 0 -8 -1 -6 -3z"/>
<path d="M2221 2075 c0 -5 6 -21 14 -35 8 -14 14 -20 14 -15 0 6 -6 21 -14 35
-8 14 -14 21 -14 15z"/>
<path d="M2198 1921 c33 -31 49 -40 37 -21 -3 5 -20 19 -38 31 l-32 22 33 -32z"/>
<path d="M4270 1878 c0 -9 5 -20 11 -23 17 -11 18 -2 3 19 -12 17 -14 17 -14
4z"/>
<path d="M4538 1843 c7 -3 16 -2 19 1 4 3 -2 6 -13 5 -11 0 -14 -3 -6 -6z"/>
<path d="M1530 1450 c0 -5 5 -10 10 -10 6 0 10 5 10 10 0 6 -4 10 -10 10 -5 0
-10 -4 -10 -10z"/>
</g>
</svg>
